<svg t="1709962285580" class="icon" viewBox="0 0 1170 1024" version="1.1" xmlns="http://www.w3.org/2000/svg" p-id="13574" width="200" height="200"><path d="M101.003636 6.516364A56.552727 56.552727 0 0 0 32.814545 18.618182c-24.901818 20.014545-30.254545 46.545455-14.661818 61.672727zM100.305455 153.367273l82.618181-73.076364-27.694545-24.203636-82.618182 72.843636 27.694546 24.436364zM142.661818 188.974545l82.850909-73.076363-30.254545-24.203637-82.385455 75.17091 29.789091 22.10909zM182.923636 226.676364l82.618182-73.309091-27.461818-24.436364L155.229091 202.472727l27.694545 24.203637zM225.512727 264.145455l80.290909-75.17091-27.694545-22.10909-82.850909 70.74909 30.254545 26.53091zM265.541818 299.752727l82.618182-73.076363-27.694545-24.203637-82.385455 72.843637 27.461818 24.436363zM57.483636 115.898182l85.178182-73.309091L112.872727 18.152727 32.581818 91.694545l24.901818 24.203637zM1136.872727 18.618182a56.32 56.32 0 0 0-67.956363-12.101818l81.92 73.774545c15.592727-13.730909 8.843636-41.658182-13.963637-61.672727zM1097.541818 128.930909L1014.690909 56.087273l-27.694545 24.203636 82.850909 73.076364 27.694545-24.436364zM1057.28 166.865455l-85.178182-75.17091-25.134545 24.203637 80.058182 73.076363 30.254545-22.10909zM1014.690909 202.472727l-82.618182-73.541818-27.461818 24.436364 82.385455 73.309091L1014.690909 202.472727zM972.101818 237.614545l-82.618182-70.74909-27.694545 22.10909 85.178182 75.17091 25.134545-26.53091zM932.072727 275.316364L846.894545 202.472727 821.527273 226.676364l83.083636 73.076363 27.461818-24.436363zM1137.570909 91.694545L1057.28 18.152727l-30.254545 24.436364 82.850909 73.309091 27.694545-24.203637zM916.945455 332.8l-137.774546-117.294545H390.981818l-137.774545 117.294545H916.945455z" p-id="13575"></path><path d="M92.625455 939.752727h974.42909V1024H92.625455z" p-id="13576"></path><path d="M0 353.047273v567.156363h1170.152727V353.047273z m626.269091 411.927272l-145.221818 56.552728 20.014545-139.636364 46.545455 30.952727 66.792727-75.170909-93.090909-35.607272 105.192727-145.92 35.141818 17.454545-83.549091 111.709091L674.909091 624.174545l-95.418182 110.778182z m473.6-161.745454H824.32v-188.509091h275.549091z" p-id="13577"></path></svg>