<?xml version="1.0" standalone="no"?><!DOCTYPE svg PUBLIC "-//W3C//DTD SVG 1.1//EN" "http://www.w3.org/Graphics/SVG/1.1/DTD/svg11.dtd"><svg t="1704008584618" class="icon" viewBox="0 0 1024 1024" version="1.1" xmlns="http://www.w3.org/2000/svg" p-id="1078" xmlns:xlink="http://www.w3.org/1999/xlink" width="200" height="200"><path d="M266.581333 748.458667a33.024 33.024 0 0 1-4.096 0C178.688 738.304 106.24 694.528 68.778667 631.466667A184.576 184.576 0 0 1 42.666667 536.149333c0-105.813333 90.453333-193.621333 212.053333-211.029333 5.973333-129.877333 134.144-233.898667 290.901333-233.898667 142.421333 0 264.021333 87.722667 287.061334 203.264 91.221333 42.666667 149.077333 124.245333 149.077333 212.565334a209.322667 209.322667 0 0 1-25.6 100.437333c-36.778667 68.266667-107.349333 117.333333-193.621333 135.509333a34.133333 34.133333 0 0 1-14.08-66.816c65.621333-13.824 120.832-51.2 147.626666-101.12a142.08 142.08 0 0 0 17.664-68.266666c0-65.877333-48.725333-127.488-124.245333-156.928A34.133333 34.133333 0 0 1 768 321.536c-8.533333-90.88-106.154667-162.133333-221.866667-162.133333-122.88 0-222.805333 78.506667-222.805333 175.104a131.157333 131.157333 0 0 0 1.109333 17.066666 34.133333 34.133333 0 0 1-32.768 38.4C191.573333 393.557333 110.933333 458.922667 110.933333 536.149333a117.248 117.248 0 0 0 17.066667 60.330667c26.794667 45.056 80.213333 76.8 143.018667 83.968a34.133333 34.133333 0 0 1-3.925334 68.266667z" fill="#333333" p-id="1079"></path><path d="M699.733333 638.378667H324.266667a93.866667 93.866667 0 0 1 0-187.733334h375.466666a93.866667 93.866667 0 0 1 0 187.733334z m-375.466666-119.466667a25.6 25.6 0 0 0 0 51.2h375.466666a25.6 25.6 0 0 0 0-51.2z" fill="#333333" p-id="1080"></path><path d="M512 791.637333a34.133333 34.133333 0 0 1-34.133333-34.133333v-136.533333a34.133333 34.133333 0 0 1 68.266666 0v136.533333a34.133333 34.133333 0 0 1-34.133333 34.133333zM371.541333 873.045333h-170.666666a34.133333 34.133333 0 0 1 0-68.266666h170.666666a34.133333 34.133333 0 0 1 0 68.266666zM814.933333 873.045333H642.218667a34.133333 34.133333 0 1 1 0-68.266666H814.933333a34.133333 34.133333 0 0 1 0 68.266666z" fill="#333333" p-id="1081"></path><path d="M149.333333 907.178667a68.266667 68.266667 0 1 1 68.266667-68.266667 68.266667 68.266667 0 0 1-68.266667 68.266667z m0-68.266667z m0 0z m0 0z m0 0z m0 0z m0 0z m0 0z m0 0zM874.666667 907.178667a68.266667 68.266667 0 1 1 68.266666-68.266667 68.266667 68.266667 0 0 1-68.266666 68.266667z m0-68.266667z m0 0z m0 0z m0 0z m0 0z m0 0z m0 0z m0 0zM507.733333 932.778667a93.866667 93.866667 0 1 1 93.866667-93.866667 93.866667 93.866667 0 0 1-93.866667 93.866667z m0-119.466667a25.6 25.6 0 1 0 25.6 25.6 25.6 25.6 0 0 0-25.6-25.6z" p-id="1082"></path></svg>